cyclingleg_states
version=1
nRows=4
nColumns=55
inDegrees=yes

# SIMM Motion File Header:
name cyclingleg_states
datacolumns 55
datarows 4
otherdata 1
range 0.00000000 0.00454545
endheader
time	/jointset/bb/crank_angle/value	/jointset/bb/crank_angle/speed	/jointset/spindle/pedal_angle_r/value	/jointset/spindle/pedal_angle_r/speed	/jointset/ground_pelvis/pelvis_tilt/value	/jointset/ground_pelvis/pelvis_tilt/speed	/jointset/ground_pelvis/pelvis_list/value	/jointset/ground_pelvis/pelvis_list/speed	/jointset/ground_pelvis/pelvis_rotation/value	/jointset/ground_pelvis/pelvis_rotation/speed	/jointset/ground_pelvis/pelvis_tx/value	/jointset/ground_pelvis/pelvis_tx/speed	/jointset/ground_pelvis/pelvis_ty/value	/jointset/ground_pelvis/pelvis_ty/speed	/jointset/ground_pelvis/pelvis_tz/value	/jointset/ground_pelvis/pelvis_tz/speed	/jointset/hip_r/hip_angle_r/value	/jointset/hip_r/hip_angle_r/speed	/jointset/hip_r/hip_adduction_r/value	/jointset/hip_r/hip_adduction_r/speed	/jointset/hip_r/hip_rotation_r/value	/jointset/hip_r/hip_rotation_r/speed	/jointset/knee_r/knee_angle_r/value	/jointset/knee_r/knee_angle_r/speed	/jointset/knee_r/tib_tx_r/value	/jointset/knee_r/tib_tx_r/speed	/jointset/knee_r/tib_ty_r/value	/jointset/knee_r/tib_ty_r/speed	/jointset/tib_pat_r/pat_angle_r/value	/jointset/tib_pat_r/pat_angle_r/speed	/jointset/tib_pat_r/pat_tx_r/value	/jointset/tib_pat_r/pat_tx_r/speed	/jointset/tib_pat_r/pat_ty_r/value	/jointset/tib_pat_r/pat_ty_r/speed	/jointset/ankle_r/ankle_angle_r/value	/jointset/ankle_r/ankle_angle_r/speed	/jointset/subtalar_r/subtalar_angle_r/value	/jointset/subtalar_r/subtalar_angle_r/speed	/jointset/mtp_r/mtp_angle_r/value	/jointset/mtp_r/mtp_angle_r/speed	/forceset/bifemlh_r/activation	/forceset/bifemlh_r/fiber_length	/forceset/bifemsh_r/activation	/forceset/bifemsh_r/fiber_length	/forceset/glut_max2_r/activation	/forceset/glut_max2_r/fiber_length	/forceset/vas_int_r/activation	/forceset/vas_int_r/fiber_length	/forceset/gastroc_r/activation	/forceset/gastroc_r/fiber_length	/forceset/soleus_r/activation	/forceset/soleus_r/fiber_length	/forceset/tib_ant_r/activation	/forceset/tib_ant_r/fiber_length
      0.00000000	    -10.13488126	      0.00000000	      4.90699092	      0.00000000	     -0.00000000	      0.00000000	      0.00000000	      0.00000000	      0.00000000	      0.00000000	     -0.10000000	      0.00000000	     -0.05000000	      0.00000000	      0.00000000	      0.00000000	     83.11760167	      0.00000000	      4.07985323	      0.00000000	     -3.79708845	      0.00000000	   -115.32183968	      0.00000000	     -0.00208256	      0.00000000	     -0.49454392	      0.00000000	     17.65061979	      0.00000000	      0.02178359	      0.00000000	     -0.02422901	      0.00000000	     27.66764378	      0.00000000	      0.00000000	      0.00000000	     -0.00000000	      0.00000000	      0.05000000	      0.13830650	      0.05000000	      0.14485394	      0.05000000	      0.15515169	      0.05000000	      0.16047755	      0.05000000	      0.12869290	      0.05000000	      0.10842558	      0.05000000	      0.11255059
      0.00100000	    -10.13687854	     -3.99184756	      4.87030728	    -73.33661084	     -0.00000000	     -0.00000000	     -0.00000000	     -0.00000000	      0.00000000	      0.00000000	     -0.10000000	     -0.00000000	     -0.05000000	      0.00000000	     -0.00007863	     -0.15723660	     83.12925259	     23.29096857	      4.07133805	    -17.01972973	     -3.79286883	      8.44547269	   -115.32742144	    -11.14705884	     -0.00208445	     -0.00376058	     -0.49454573	     -0.00361547	     17.65062356	      0.00751165	      0.02178085	     -0.00545590	     -0.02422946	     -0.00088077	     27.62160650	    -92.04580297	     -0.00000000	     -0.00000000	      0.00000000	      0.00000000	      0.04928705	      0.13830691	      0.04928705	      0.14485437	      0.04928705	      0.15515213	      0.04928705	      0.16047797	      0.04928705	      0.12869081	      0.04928705	      0.10842069	      0.04928705	      0.11255414
      0.00254066	    -10.14772621	    -10.06740399	      4.67069588	   -185.57865033	     -0.00000000	     -0.00000000	     -0.00000000	     -0.00000000	      0.00000000	      0.00000000	     -0.10000000	     -0.00000000	     -0.05000000	      0.00000000	     -0.00050713	     -0.39885283	     83.19262909	     58.90348765	      4.02506570	    -42.96966935	     -3.76973731	     21.63896760	   -115.35758737	    -27.88290925	     -0.00209463	     -0.00941387	     -0.49455551	     -0.00904200	     17.65064372	      0.01847162	      0.02176609	     -0.01365125	     -0.02423184	     -0.00220403	     27.37093060	   -233.18185399	     -0.00000000	     -0.00000000	      0.00000000	      0.00000000	      0.04821098	      0.13831025	      0.04821098	      0.14485615	      0.04821098	      0.15515498	      0.04821098	      0.16048159	      0.04821098	      0.12865554	      0.04821098	      0.10836416	      0.04821098	      0.11260545
      0.00454545	    -10.17560246	    -17.66584190	      4.15408872	   -329.30299009	     -0.00000000	     -0.00000000	     -0.00000000	     -0.00000000	      0.00000000	     -0.00000000	     -0.10000000	      0.00000000	     -0.05000000	      0.00000000	     -0.00162082	     -0.71202099	     83.35646084	    104.33528380	      3.90581754	    -75.77268992	     -3.70854338	     39.61313463	   -115.43403550	    -47.98359785	     -0.00212046	     -0.01623201	     -0.49458029	     -0.01555329	     17.65069326	      0.03040615	      0.02172864	     -0.02351003	     -0.02423789	     -0.00379683	     26.72091852	   -414.89082201	     -0.00000000	     -0.00000000	      0.00000000	     -0.00000000	      0.04685013	      0.13832471	      0.04685013	      0.14485903	      0.04685013	      0.15516438	      0.04685013	      0.16049622	      0.04685013	      0.12848073	      0.04685013	      0.10816017	      0.04685013	      0.11292330
